<svg width="58" height="58" viewBox="0 0 58 58" fill="none" xmlns="http://www.w3.org/2000/svg">
<g clip-path="url(#clip0_293_222)">
<path d="M29 57.0938C44.5158 57.0938 57.0938 44.5158 57.0938 29C57.0938 13.4843 44.5158 0.90625 29 0.90625C13.4843 0.90625 0.90625 13.4843 0.90625 29C0.90625 44.5158 13.4843 57.0938 29 57.0938Z" fill="#EEF1FF"/>
<path d="M51.5449 45.7428C48.9248 42.2349 45.5226 39.3865 41.6087 37.424C37.6948 35.4615 33.3771 34.4389 28.9987 34.4375C24.6203 34.4361 20.3019 35.456 16.3868 37.4161C12.4716 39.3762 9.06765 42.2224 6.44531 45.7287C9.05431 49.2527 12.4528 52.1163 16.3681 54.09C20.2835 56.0636 24.6069 57.0924 28.9916 57.0938C33.3763 57.0952 37.7003 56.0691 41.6169 54.0979C45.5335 52.1267 48.9337 49.2652 51.5449 45.7428Z" fill="#243690"/>
<path d="M29 30.8125C35.0061 30.8125 39.875 25.9436 39.875 19.9375C39.875 13.9314 35.0061 9.0625 29 9.0625C22.9939 9.0625 18.125 13.9314 18.125 19.9375C18.125 25.9436 22.9939 30.8125 29 30.8125Z" fill="#243690"/>
</g>
<defs>
<clipPath id="clip0_293_222">
<rect width="58" height="58" fill="white"/>
</clipPath>
</defs>
</svg>
