<svg width="32" height="28" viewBox="0 0 32 28" fill="none" xmlns="http://www.w3.org/2000/svg">
<path d="M2.1875 21.1251V4.13318C0.936875 4.41755 0 5.53943 0 6.87505V25.1251C0 26.6757 1.26188 27.9376 2.8125 27.9376H25.125C26.4387 27.9376 27.545 27.0319 27.8525 25.8126H6.875C4.29 25.8126 2.1875 23.7094 2.1875 21.1251Z" fill="#008ACC"/>
<path d="M16 7.5625C16.8629 7.5625 17.5625 6.86294 17.5625 6C17.5625 5.13706 16.8629 4.4375 16 4.4375C15.1371 4.4375 14.4375 5.13706 14.4375 6C14.4375 6.86294 15.1371 7.5625 16 7.5625Z" fill="#008ACC"/>
<path d="M16.6174 16.2056C16.2639 16.5149 15.7361 16.5149 15.3826 16.2056L11.9649 13.215L4.0625 19.3614V21.125C4.0625 22.6757 5.32438 23.9375 6.875 23.9375H29.1875C30.7381 23.9375 32 22.6757 32 21.125V16.387L24.0148 9.73279L16.6174 16.2056Z" fill="#008ACC"/>
<path d="M29.1875 0.0625H6.875C5.32438 0.0625 4.0625 1.32438 4.0625 2.875V16.9859L11.4244 11.26C11.7791 10.9842 12.2794 10.9988 12.6174 11.2945L16 14.2542L23.3826 7.79444C23.7296 7.49087 24.2459 7.48456 24.6001 7.77975L32 13.9463V2.875C32 1.32438 30.7381 0.0625 29.1875 0.0625ZM16 9.4375C14.1046 9.4375 12.5625 7.89544 12.5625 6C12.5625 4.10456 14.1046 2.5625 16 2.5625C17.8954 2.5625 19.4375 4.10456 19.4375 6C19.4375 7.89544 17.8954 9.4375 16 9.4375Z" fill="#008ACC"/>
</svg>
