<svg width="30" height="32" viewBox="0 0 30 32" fill="none" xmlns="http://www.w3.org/2000/svg">
<path d="M22.5061 0H3.7561C2.20523 0 0.943604 1.26163 0.943604 2.8125V25.4376C0.943604 26.6582 1.72973 27.6891 2.8186 28.0774V9.21388C2.8186 7.96238 3.3066 6.785 4.19192 5.89969L6.84329 3.24831C7.7286 2.363 8.90598 1.875 10.1575 1.875H25.1459C24.7576 0.786125 23.7267 0 22.5061 0Z" fill="#43474B"/>
<path d="M26.2563 3.76245C17.9732 3.76245 20.3838 3.76245 12.1938 3.76245V10.3125C12.1938 10.8306 11.7745 11.2625 11.2563 11.2625H4.69385V29.1875C4.69385 30.7388 5.9551 32 7.50635 32H26.2563C27.807 32 29.0564 30.7388 29.0564 29.1875V6.56245C29.0564 5.01183 27.807 3.76245 26.2563 3.76245ZM24.3813 26.375H9.38135C8.86322 26.375 8.44385 25.9556 8.44385 25.4375C8.44385 24.9194 8.86322 24.5 9.38135 24.5H24.3813C24.8995 24.5 25.3188 24.9194 25.3188 25.4375C25.3188 25.9556 24.8995 26.375 24.3813 26.375ZM24.3813 22.625H9.38135C8.86322 22.625 8.44385 22.2056 8.44385 21.6875C8.44385 21.1694 8.86322 20.75 9.38135 20.75H24.3813C24.8995 20.75 25.3188 21.1694 25.3188 21.6875C25.3188 22.2056 24.8995 22.625 24.3813 22.625ZM24.3813 18.875H9.38135C8.86322 18.875 8.44385 18.4556 8.44385 17.9375C8.44385 17.4194 8.86322 17 9.38135 17H24.3813C24.8995 17 25.3188 17.4194 25.3188 17.9375C25.3188 18.4556 24.8995 18.875 24.3813 18.875ZM24.3813 15.125H9.38135C8.86322 15.125 8.44385 14.7056 8.44385 14.1875C8.44385 13.6694 8.86322 13.25 9.38135 13.25H24.3813C24.8995 13.25 25.3188 13.6694 25.3188 14.1875C25.3188 14.7056 24.8995 15.125 24.3813 15.125Z" fill="#43474B"/>
<path d="M10.1575 3.75C9.40673 3.75 8.69998 4.043 8.16898 4.574L5.5176 7.22538C4.89254 7.85038 4.6936 8.54925 4.6936 9.375H10.3186V3.75H10.1575Z" fill="#43474B"/>
</svg>
