<svg width="32" height="30" viewBox="0 0 32 30" fill="none" xmlns="http://www.w3.org/2000/svg">
<path d="M8.9375 3.3125V1.25C8.9375 0.73225 8.51775 0.3125 8 0.3125C7.48225 0.3125 7.0625 0.73225 7.0625 1.25V3.3125H8.9375Z" fill="#34A853"/>
<path d="M16.9375 3.3125V1.25C16.9375 0.73225 16.5178 0.3125 16 0.3125C15.4822 0.3125 15.0625 0.73225 15.0625 1.25V3.3125H16.9375Z" fill="#34A853"/>
<path d="M32 10.3125V6.125C32 4.57419 30.7383 3.3125 29.1875 3.3125H24.9375V7.25C24.9375 7.76775 24.5177 8.1875 24 8.1875C23.4823 8.1875 23.0625 7.76775 23.0625 7.25C23.0625 5.73856 23.0625 4.53813 23.0625 3.3125H16.9375V7.25C16.9375 7.76775 16.5177 8.1875 16 8.1875C15.4823 8.1875 15.0625 7.76775 15.0625 7.25C15.0625 6.02887 15.0625 4.53456 15.0625 3.3125H8.9375V7.25C8.9375 7.76775 8.51775 8.1875 8 8.1875C7.48225 8.1875 7.0625 7.76775 7.0625 7.25C7.0625 5.73856 7.0625 4.53813 7.0625 3.3125H2.8125C1.26169 3.3125 0 4.57419 0 6.125V10.3125H32Z" fill="#34A853"/>
<path d="M24.9375 3.3125V1.25C24.9375 0.73225 24.5178 0.3125 24 0.3125C23.4822 0.3125 23.0625 0.73225 23.0625 1.25V3.3125H24.9375Z" fill="#34A853"/>
<path d="M0 12.1875V26.875C0 28.4258 1.26169 29.6875 2.8125 29.6875H29.1875C30.7383 29.6875 32 28.4258 32 26.875V12.1875H0ZM6.5 24.6875H5.5C4.98225 24.6875 4.5625 24.2677 4.5625 23.75C4.5625 23.2323 4.98225 22.8125 5.5 22.8125H6.5C7.01775 22.8125 7.4375 23.2323 7.4375 23.75C7.4375 24.2677 7.01775 24.6875 6.5 24.6875ZM6.5 20.6875H5.5C4.98225 20.6875 4.5625 20.2677 4.5625 19.75C4.5625 19.2323 4.98225 18.8125 5.5 18.8125H6.5C7.01775 18.8125 7.4375 19.2323 7.4375 19.75C7.4375 20.2677 7.01775 20.6875 6.5 20.6875ZM6.5 16.6875H5.5C4.98225 16.6875 4.5625 16.2677 4.5625 15.75C4.5625 15.2322 4.98225 14.8125 5.5 14.8125H6.5C7.01775 14.8125 7.4375 15.2322 7.4375 15.75C7.4375 16.2677 7.01775 16.6875 6.5 16.6875ZM11.5 24.6875H10.5C9.98225 24.6875 9.5625 24.2677 9.5625 23.75C9.5625 23.2323 9.98225 22.8125 10.5 22.8125H11.5C12.0177 22.8125 12.4375 23.2323 12.4375 23.75C12.4375 24.2677 12.0177 24.6875 11.5 24.6875ZM11.5 20.6875H10.5C9.98225 20.6875 9.5625 20.2677 9.5625 19.75C9.5625 19.2323 9.98225 18.8125 10.5 18.8125H11.5C12.0177 18.8125 12.4375 19.2323 12.4375 19.75C12.4375 20.2677 12.0177 20.6875 11.5 20.6875ZM11.5 16.6875H10.5C9.98225 16.6875 9.5625 16.2677 9.5625 15.75C9.5625 15.2322 9.98225 14.8125 10.5 14.8125H11.5C12.0177 14.8125 12.4375 15.2322 12.4375 15.75C12.4375 16.2677 12.0177 16.6875 11.5 16.6875ZM16.5 24.6875H15.5C14.9823 24.6875 14.5625 24.2677 14.5625 23.75C14.5625 23.2323 14.9823 22.8125 15.5 22.8125H16.5C17.0177 22.8125 17.4375 23.2323 17.4375 23.75C17.4375 24.2677 17.0177 24.6875 16.5 24.6875ZM16.5 20.6875H15.5C14.9823 20.6875 14.5625 20.2677 14.5625 19.75C14.5625 19.2323 14.9823 18.8125 15.5 18.8125H16.5C17.0177 18.8125 17.4375 19.2323 17.4375 19.75C17.4375 20.2677 17.0177 20.6875 16.5 20.6875ZM16.5 16.6875H15.5C14.9823 16.6875 14.5625 16.2677 14.5625 15.75C14.5625 15.2322 14.9823 14.8125 15.5 14.8125H16.5C17.0177 14.8125 17.4375 15.2322 17.4375 15.75C17.4375 16.2677 17.0177 16.6875 16.5 16.6875ZM21.5 24.6875H20.5C19.9823 24.6875 19.5625 24.2677 19.5625 23.75C19.5625 23.2323 19.9823 22.8125 20.5 22.8125H21.5C22.0177 22.8125 22.4375 23.2323 22.4375 23.75C22.4375 24.2677 22.0177 24.6875 21.5 24.6875ZM21.5 20.6875H20.5C19.9823 20.6875 19.5625 20.2677 19.5625 19.75C19.5625 19.2323 19.9823 18.8125 20.5 18.8125H21.5C22.0177 18.8125 22.4375 19.2323 22.4375 19.75C22.4375 20.2677 22.0177 20.6875 21.5 20.6875ZM21.5 16.6875H20.5C19.9823 16.6875 19.5625 16.2677 19.5625 15.75C19.5625 15.2322 19.9823 14.8125 20.5 14.8125H21.5C22.0177 14.8125 22.4375 15.2322 22.4375 15.75C22.4375 16.2677 22.0177 16.6875 21.5 16.6875ZM26.5 24.6875H25.5C24.9823 24.6875 24.5625 24.2677 24.5625 23.75C24.5625 23.2323 24.9823 22.8125 25.5 22.8125H26.5C27.0177 22.8125 27.4375 23.2323 27.4375 23.75C27.4375 24.2677 27.0177 24.6875 26.5 24.6875ZM26.5 20.6875H25.5C24.9823 20.6875 24.5625 20.2677 24.5625 19.75C24.5625 19.2323 24.9823 18.8125 25.5 18.8125H26.5C27.0177 18.8125 27.4375 19.2323 27.4375 19.75C27.4375 20.2677 27.0177 20.6875 26.5 20.6875ZM26.5 16.6875H25.5C24.9823 16.6875 24.5625 16.2677 24.5625 15.75C24.5625 15.2322 24.9823 14.8125 25.5 14.8125H26.5C27.0177 14.8125 27.4375 15.2322 27.4375 15.75C27.4375 16.2677 27.0177 16.6875 26.5 16.6875Z" fill="#34A853"/>
</svg>
