<svg width="18" height="26" viewBox="0 0 18 26" fill="none" xmlns="http://www.w3.org/2000/svg">
<path d="M9 0.5C4.1625 0.5 0.25 4.4125 0.25 9.25C0.25 11.425 0.875 13.4625 2.0125 15.3C3.2 17.225 4.7625 18.875 5.9625 20.8C6.55 21.7375 6.975 22.6125 7.425 23.625C7.75 24.3125 8.0125 25.5 9 25.5C9.9875 25.5 10.25 24.3125 10.5625 23.625C11.025 22.6125 11.4375 21.7375 12.025 20.8C13.225 18.8875 14.7875 17.2375 15.975 15.3C17.125 13.4625 17.75 11.425 17.75 9.25C17.75 4.4125 13.8375 0.5 9 0.5ZM9 12.6875C7.275 12.6875 5.875 11.2875 5.875 9.5625C5.875 7.8375 7.275 6.4375 9 6.4375C10.725 6.4375 12.125 7.8375 12.125 9.5625C12.125 11.2875 10.725 12.6875 9 12.6875Z" fill="#243690"/>
</svg>
