<svg width="18" height="18" viewBox="0 0 18 18" fill="none" xmlns="http://www.w3.org/2000/svg">
<path d="M7.83334 12.8333L13.7083 6.95829L12.5417 5.79163L7.83334 10.5L5.45834 8.12496L4.29167 9.29163L7.83334 12.8333ZM9.00001 17.3333C7.84723 17.3333 6.7639 17.1144 5.75001 16.6766C4.73612 16.2388 3.85417 15.6452 3.10417 14.8958C2.35417 14.1458 1.76056 13.2638 1.32334 12.25C0.886116 11.2361 0.667227 10.1527 0.666672 8.99996C0.666672 7.84718 0.885561 6.76385 1.32334 5.74996C1.76112 4.73607 2.35473 3.85413 3.10417 3.10413C3.85417 2.35413 4.73612 1.76052 5.75001 1.32329C6.7639 0.886071 7.84723 0.667182 9.00001 0.666626C10.1528 0.666626 11.2361 0.885515 12.25 1.32329C13.2639 1.76107 14.1458 2.35468 14.8958 3.10413C15.6458 3.85413 16.2397 4.73607 16.6775 5.74996C17.1153 6.76385 17.3339 7.84718 17.3333 8.99996C17.3333 10.1527 17.1145 11.2361 16.6767 12.25C16.2389 13.2638 15.6453 14.1458 14.8958 14.8958C14.1458 15.6458 13.2639 16.2397 12.25 16.6775C11.2361 17.1152 10.1528 17.3339 9.00001 17.3333ZM9.00001 15.6666C10.8611 15.6666 12.4375 15.0208 13.7292 13.7291C15.0208 12.4375 15.6667 10.8611 15.6667 8.99996C15.6667 7.13885 15.0208 5.56246 13.7292 4.27079C12.4375 2.97913 10.8611 2.33329 9.00001 2.33329C7.13889 2.33329 5.56251 2.97913 4.27084 4.27079C2.97917 5.56246 2.33334 7.13885 2.33334 8.99996C2.33334 10.8611 2.97917 12.4375 4.27084 13.7291C5.56251 15.0208 7.13889 15.6666 9.00001 15.6666Z" fill="#128825"/>
</svg>
